<svg id="Capa_1" enable-background="new 0 0 512 512" height="512" viewBox="0 0 512 512" width="512" xmlns="http://www.w3.org/2000/svg"><circle cx="256" cy="256" fill="#4a7aff" r="256"/><path d="m512 256c0-6.28-.237-12.504-.681-18.671l-118.871-118.871-268.743 278.266 114.661 114.661c5.828.396 11.705.615 17.634.615 141.385 0 256-114.615 256-256z" fill="#0053bf"/><circle cx="256" cy="256" fill="#ffe000" r="193.748"/><path d="m449.748 256c0-107.004-86.744-193.748-193.748-193.748v387.496c107.004 0 193.748-86.744 193.748-193.748z" fill="#ffc200"/><path d="m133.564 406.155c17.339 14.155 37.174 25.361 58.745 32.867v-252.688h-58.745z" fill="#65b1fc"/><path d="m319.502 439.089c21.566-7.479 41.4-18.658 58.744-32.781v-219.974h-58.744z" fill="#4a7aff"/><path d="m223.938 361.973-26.576-13.919c11.47-21.898 33.938-35.502 58.638-35.502 24.701 0 47.17 13.604 58.638 35.502l-26.576 13.918c-6.273-11.979-18.559-19.42-32.062-19.42-13.502 0-25.788 7.442-32.062 19.421z" fill="#555a66"/><path d="m256 312.552v30c13.503 0 25.788 7.441 32.062 19.42l26.576-13.918c-11.468-21.898-33.937-35.502-58.638-35.502z" fill="#333940"/><path d="m127.128 170.834h71.996v30h-71.996z" fill="#555a66"/><path d="m312.876 170.834h71.996v30h-71.996z" fill="#333940"/></svg>