<svg id="Capa_1" enable-background="new 0 0 512 512" height="512" viewBox="0 0 512 512" width="512" xmlns="http://www.w3.org/2000/svg"><circle cx="256" cy="256" fill="#4a7aff" r="256"/><path d="m392.448 118.458-247.493 226.997-89.13-7.278 172.308 172.308c9.154.991 18.449 1.515 27.867 1.515 141.385 0 256-114.615 256-256 0-6.28-.237-12.505-.682-18.671z" fill="#0053bf"/><circle cx="256" cy="256" fill="#ffe000" r="193.748"/><path d="m449.748 256c0-107.004-86.744-193.748-193.748-193.748v387.496c107.004 0 193.748-86.744 193.748-193.748z" fill="#ffc200"/><path d="m146.818 293.813c0 60.3 48.882 109.182 109.182 109.182s109.182-48.883 109.182-109.182z" fill="#ff475a"/><path d="m365.182 293.813h-109.182v109.182c60.3 0 109.182-48.882 109.182-109.182z" fill="#d1093a"/><path d="m145.708 268.213-17.418-24.426 31.571-22.512-31.572-22.513 17.418-24.426 65.826 46.938z" fill="#555a66"/><path d="m366.293 268.213-65.826-46.938 65.825-46.939 17.418 24.426-31.571 22.512 31.572 22.513z" fill="#333940"/><path d="m401.998 338.177c-14.961-14.961-20.394-74.571-20.394-74.571s59.61 5.433 74.571 20.394 14.961 39.216 0 54.177c-14.96 14.96-39.216 14.96-54.177 0z" fill="#e9edf5"/><path d="m110.002 338.177c14.961-14.961 20.394-74.571 20.394-74.571s-59.611 5.433-74.571 20.394c-14.961 14.961-14.961 39.216 0 54.177 14.96 14.96 39.216 14.96 54.177 0z" fill="#fff"/></svg>