<svg id="Capa_1" enable-background="new 0 0 512 512" height="512" viewBox="0 0 512 512" width="512" xmlns="http://www.w3.org/2000/svg"><circle cx="256" cy="256" fill="#4a7aff" r="256"/><path d="m512 256c0-6.28-.237-12.504-.681-18.671l-118.871-118.871-261.426 285.582 107.344 107.344c5.828.397 11.705.616 17.634.616 141.385 0 256-114.615 256-256z" fill="#0053bf"/><circle cx="256" cy="256" fill="#ffe000" r="193.748"/><path d="m449.748 256c0-107.004-86.744-193.748-193.748-193.748v387.496c107.004 0 193.748-86.744 193.748-193.748z" fill="#ffc200"/><path d="m337.842 354.619c0-45.202-36.643-81.845-81.844-81.845s-81.843 36.643-81.843 81.845z" fill="#ff475a"/><path d="m255.998 272.774c-45.201 0-81.843 36.643-81.843 81.845h81.845v-81.845c-.001 0-.001 0-.002 0z" fill="#ff475a"/><path d="m256 272.774v81.845h81.842c0-45.201-36.642-81.843-81.842-81.845z" fill="#d1093a"/><g fill="#555a66"><path d="m145.707 268.213-17.417-24.426 31.571-22.512-31.571-22.513 17.417-24.426 65.827 46.939z"/><path d="m366.293 268.213-65.827-46.938 65.826-46.939 17.417 24.426-31.57 22.512 31.571 22.513z"/></g></svg>