<svg id="Capa_1" enable-background="new 0 0 512 512" height="512" viewBox="0 0 512 512" width="512" xmlns="http://www.w3.org/2000/svg"><circle cx="256" cy="256" fill="#ff475a" r="256"/><path d="m512 256c0-6.28-.237-12.504-.681-18.671l-118.871-118.871-271.628 276.339 117.547 116.587c5.827.397 11.704.616 17.633.616 141.385 0 256-114.615 256-256z" fill="#d1093a"/><circle cx="256" cy="256" fill="#ffe000" r="193.748"/><path d="m449.748 256c0-107.004-86.744-193.748-193.748-193.748v387.496c107.004 0 193.748-86.744 193.748-193.748z" fill="#ffc200"/><path d="m146.818 293.813c0 60.3 48.882 109.182 109.182 109.182s109.182-48.883 109.182-109.182z" fill="#bd002f"/><path d="m365.182 293.813h-109.182v109.182c60.299 0 109.182-48.882 109.182-109.182z" fill="#85002a"/><path d="m366.293 268.213-65.827-46.938 65.826-46.939 17.417 24.426-31.57 22.512 31.571 22.513z" fill="#555a66"/><circle cx="167.667" cy="213.865" fill="#fff" r="59.302"/><circle cx="167.667" cy="213.865" fill="#555a66" r="22.121"/><path d="m256 443.064c-29.593 0-53.583-23.99-53.583-53.583v-95.668h107.166v95.668c0 29.593-23.99 53.583-53.583 53.583z" fill="#ff475a"/><path d="m256 293.813v149.251c29.593 0 53.583-23.99 53.583-53.583v-95.668z" fill="#d1093a"/><path d="m235.418 293.813h41.98v97.254h-41.98z" fill="#f03049"/><path d="m256 293.813h21.398v97.254h-21.398z" fill="#bd002f"/></svg>